<svg id="Layer_1" data-name="Layer 1" xmlns="http://www.w3.org/2000/svg" viewBox="0 0 1218.76 259.91"><defs><style>.cls-1{fill:#284e93;}.cls-1,.cls-2{fill-rule:evenodd;}.cls-2{fill:#e87b1e;}</style></defs><title>Nayatel logo</title><polygon class="cls-1" points="662.82 0.82 616.82 0.82 535.95 208.65 576.01 208.65 633.24 61.31 639.86 61.93 713.43 259.45 759.46 259.45 662.82 0.82"/><polygon class="cls-1" points="166.77 1.1 166.57 187.52 40.39 1.02 0.09 1 0 208.96 34.69 208.96 34.57 68.58 40.28 68.58 166.86 259.88 207.08 259.87 206.95 1.11 166.77 1.1"/><polygon class="cls-1" points="304.93 0.82 224.09 208.65 264.14 208.65 321.37 61.31 327.98 61.93 401.61 259.45 447.6 259.45 350.98 0.82 304.93 0.82"/><polygon class="cls-1" points="540.31 0.82 484.42 119.22 477.21 119.22 424.63 0.82 384.52 0.82 466.03 164.24 466.03 259.45 499.58 259.45 499.58 163.62 580.4 0.82 540.31 0.82"/><path class="cls-2" d="M942,.82H902.53L864.82,57.28H833.71V67.49H858l-85,127a83.07,83.07,0,0,0-4.81,9.26c-32.36-19-111.71-30.77-136.46-31-27.19-.19-116,8.78-136.09,34.81,41.93-11.64,89.5-21.41,133.89-20.23,45.59,1.19,92.71,11.5,136.45,22.11-14.41,41,18.88,66.11,57.59,39.4,20.9-15.34,38.14-32.95,67.14-62.07-.27,30.33,12.93,61.23,28.83,66.89,66.2,19.85,110.21-55.74,155.19-95.23a235,235,0,0,0-25.63,50.85c-9.76,32.16,8.92,62.86,51.27,38.59,25-17.12,48.12-36.64,72.16-61.29l.06-5.52c-26.71,22.09-79.65,74.15-103.27,63.76C1044.87,229.94,1150,116.19,1218.76,0h-33.65C1131,83.9,1013,223.45,958.4,244c-41.88,15.83-41.81-39.23-32.82-40.53,49-8.13,81.08-24.93,105.53-53.73,15.09-31.7-4.14-49.57-46-44.64C899.44,129.8,841.68,240.62,798,246c-14.26,1.51-14.68-15.85-5.26-27L896.37,67.49h68.31V57.28H903.37L942,.82Zm-13.09,192c22.83-59.51,78.65-90.46,84.71-70.56,8.66,28.77-35.71,54.47-84.71,70.56Z"/></svg>